<?xml version="1.0" encoding="UTF-8"?>
<svg xmlns="http://www.w3.org/2000/svg"
     viewBox="30 60 126 138"
     width="126" height="138"
     role="img" aria-labelledby="title desc">
  <title id="title">PlanRemontu — ikona domu</title>
  <desc id="desc">Ikona domu z listą kontrolną, minimalna przestrzeń tła.</desc>

  <style type="text/css"><![CDATA[
    :root {
      --navy: #0b3d91;
      --light: #3fa9f5;
    }
    .house-outline { fill: none; stroke: var(--navy); stroke-width: 10; stroke-linejoin: round; stroke-linecap: round; }
    .check { fill: none; stroke: var(--light); stroke-width: 9; stroke-linecap: round; stroke-linejoin: round; }
    .line { stroke: var(--light); stroke-width: 7; stroke-linecap: round; }
    .subtle { fill: var(--navy); opacity: 0.9; }
  ]]></style>

  <g transform="translate(30,60) scale(0.7)">
    <path class="house-outline" d="M 90 0 L 180 60 L 180 170 C 180 185 168 197 153 197 L 27 197 C 12 197 0 185 0 170 L 0 60 Z" />
    <path class="house-outline" d="M 90 0 L 180 60" stroke-width="10" />
    <g transform="translate(18,68)">
      <path class="check" d="M8 14 L18 24 L36 6" />
      <line class="line" x1="46" y1="12" x2="120" y2="12" />
      <path class="check" d="M8 54 L18 64 L36 46" />
      <line class="line" x1="46" y1="52" x2="120" y2="52" />
      <path class="check" d="M8 94 L18 104 L36 86" />
      <line class="line" x1="46" y1="92" x2="120" y2="92" />
    </g>
  </g>
</svg>
